<?xml version="1.0" encoding="utf-8"?>
<!-- Generator: Adobe Illustrator 23.0.2, SVG Export Plug-In . SVG Version: 6.00 Build 0)  -->
<svg version="1.1" id="Layer_1" xmlns="http://www.w3.org/2000/svg" xmlns:xlink="http://www.w3.org/1999/xlink" x="0px" y="0px"
	 viewBox="0 0 2052.6 266.84" style="enable-background:new 0 0 2052.6 266.84;" xml:space="preserve">
<style type="text/css">
	.st0{clip-path:url(#SVGID_2_);fill:none;stroke:#2B4FA2;stroke-width:0.5;}
	.st1{clip-path:url(#SVGID_2_);fill:none;stroke:#ED1C24;stroke-width:0.5;}
	.st2{clip-path:url(#SVGID_2_);fill:none;stroke:#000000;stroke-width:0.5;}
	.st3{clip-path:url(#SVGID_2_);fill:none;stroke:#000000;stroke-width:2;}
	.st4{clip-path:url(#SVGID_2_);fill:none;stroke:#2B4FA2;stroke-width:2;}
</style>
<g>
	<defs>
		<rect id="SVGID_1_" x="593.8" y="43.15" width="983.14" height="180.54"/>
	</defs>
	<clipPath id="SVGID_2_">
		<use xlink:href="#SVGID_1_"  style="overflow:visible;"/>
	</clipPath>
	<line class="st0" x1="594.02" y1="155.8" x2="653.96" y2="43.27"/>
	<line class="st1" x1="775.37" y1="155.8" x2="835.31" y2="43.27"/>
	<line class="st2" x1="956.73" y1="155.8" x2="1016.67" y2="43.27"/>
	<line class="st2" x1="1138.08" y1="155.8" x2="1198.02" y2="43.27"/>
	<line class="st2" x1="1319.43" y1="155.8" x2="1379.37" y2="43.27"/>
	<line class="st2" x1="639.36" y1="155.8" x2="699.3" y2="43.27"/>
	<line class="st2" x1="820.71" y1="155.8" x2="880.65" y2="43.27"/>
	<line class="st2" x1="1002.07" y1="155.8" x2="1062" y2="43.27"/>
	<line class="st2" x1="1183.42" y1="155.8" x2="1243.36" y2="43.27"/>
	<line class="st2" x1="1364.77" y1="155.8" x2="1424.71" y2="43.27"/>
	<line class="st2" x1="684.7" y1="155.8" x2="744.64" y2="43.27"/>
	<line class="st2" x1="866.05" y1="155.8" x2="925.99" y2="43.27"/>
	<line class="st2" x1="1047.4" y1="155.8" x2="1107.34" y2="43.27"/>
	<line class="st0" x1="1228.76" y1="155.8" x2="1288.7" y2="43.27"/>
	<line class="st1" x1="1410.11" y1="155.8" x2="1470.05" y2="43.27"/>
	<line class="st2" x1="730.04" y1="155.8" x2="789.97" y2="43.27"/>
	<line class="st0" x1="911.39" y1="155.8" x2="971.33" y2="43.27"/>
	<line class="st1" x1="1092.74" y1="155.8" x2="1152.68" y2="43.27"/>
	<line class="st2" x1="1274.09" y1="155.8" x2="1334.03" y2="43.27"/>
	<line class="st3" x1="1424.23" y1="223.07" x2="1485.84" y2="106.68"/>
	<line class="st3" x1="1469.34" y1="223.22" x2="1530.95" y2="106.53"/>
	<line class="st4" x1="1514.45" y1="223.07" x2="1576.06" y2="106.53"/>
</g>
</svg>
