<?xml version="1.0" encoding="utf-8"?>
<!-- Generator: Adobe Illustrator 23.0.2, SVG Export Plug-In . SVG Version: 6.00 Build 0)  -->
<svg version="1.1" id="Layer_1" xmlns="http://www.w3.org/2000/svg" xmlns:xlink="http://www.w3.org/1999/xlink" x="0px" y="0px"
	 viewBox="0 0 2052.6 266.84" style="enable-background:new 0 0 2052.6 266.84;" xml:space="preserve">
<style type="text/css">
	.st0{clip-path:url(#SVGID_2_);fill:none;stroke:#2B4FA2;stroke-width:0.5;}
	.st1{clip-path:url(#SVGID_2_);fill:none;stroke:#ED1C24;stroke-width:0.5;}
	.st2{clip-path:url(#SVGID_2_);fill:none;stroke:#000000;stroke-width:0.5;}
</style>
<g>
	<defs>
		<rect id="SVGID_1_" x="682" y="26.29" width="993" height="110.6"/>
	</defs>
	<clipPath id="SVGID_2_">
		<use xlink:href="#SVGID_1_"  style="overflow:visible;"/>
	</clipPath>
	<line class="st0" x1="682.22" y1="136.77" x2="741" y2="26.41"/>
	<line class="st1" x1="860.08" y1="136.77" x2="918.86" y2="26.41"/>
	<line class="st2" x1="1037.95" y1="136.77" x2="1096.72" y2="26.41"/>
	<line class="st2" x1="1215.81" y1="136.77" x2="1274.59" y2="26.41"/>
	<line class="st2" x1="1393.67" y1="136.77" x2="1452.45" y2="26.41"/>
	<line class="st2" x1="726.69" y1="136.77" x2="785.46" y2="26.41"/>
	<line class="st2" x1="904.55" y1="136.77" x2="963.33" y2="26.41"/>
	<line class="st2" x1="1527.07" y1="136.77" x2="1585.85" y2="26.41"/>
	<line class="st2" x1="1082.41" y1="136.77" x2="1141.19" y2="26.41"/>
	<line class="st2" x1="1260.28" y1="136.77" x2="1319.05" y2="26.41"/>
	<line class="st2" x1="1438.14" y1="136.77" x2="1496.92" y2="26.41"/>
	<line class="st2" x1="771.15" y1="136.77" x2="829.93" y2="26.41"/>
	<line class="st2" x1="949.02" y1="136.77" x2="1007.79" y2="26.41"/>
	<line class="st2" x1="1571.54" y1="136.77" x2="1630.31" y2="26.41"/>
	<line class="st2" x1="1126.88" y1="136.77" x2="1185.66" y2="26.41"/>
	<line class="st0" x1="1304.74" y1="136.77" x2="1363.52" y2="26.41"/>
	<line class="st1" x1="1482.6" y1="136.77" x2="1541.38" y2="26.41"/>
	<line class="st2" x1="815.62" y1="136.77" x2="874.39" y2="26.41"/>
	<line class="st0" x1="993.48" y1="136.77" x2="1052.26" y2="26.41"/>
	<line class="st0" x1="1616" y1="136.77" x2="1674.78" y2="26.41"/>
	<line class="st1" x1="1171.34" y1="136.77" x2="1230.12" y2="26.41"/>
	<line class="st2" x1="1349.21" y1="136.77" x2="1407.98" y2="26.41"/>
</g>
</svg>
