<svg id="Layer_1" data-name="Layer 1" xmlns="http://www.w3.org/2000/svg" xmlns:xlink="http://www.w3.org/1999/xlink" viewBox="0 0 1879.14 183.71"><defs><style>.cls-1,.cls-3,.cls-4,.cls-5,.cls-6,.cls-7{fill:none;}.cls-2{clip-path:url(#clip-path);}.cls-3,.cls-7{stroke:#2b4fa2;}.cls-3,.cls-4,.cls-5{stroke-width:0.68px;}.cls-4{stroke:#ed1c24;}.cls-5,.cls-6{stroke:#231f20;}.cls-6,.cls-7{stroke-width:2.7px;}</style><clipPath id="clip-path" transform="translate(-33.81 -27.49)"><rect class="cls-1" x="33.81" y="27.49" width="1879.14" height="210.75"/></clipPath></defs><title>IVDE_header</title><g class="cls-2"><line class="cls-3" x1="0.3" y1="114.59" x2="61.14" y2="0.16"/><line class="cls-3" x1="877.21" y1="114.59" x2="938.05" y2="0.16"/><line class="cls-4" x1="184.83" y1="114.59" x2="245.68" y2="0.16"/><line class="cls-4" x1="1061.74" y1="114.59" x2="1122.58" y2="0.16"/><line class="cls-5" x1="369.37" y1="114.59" x2="430.21" y2="0.16"/><line class="cls-5" x1="1246.28" y1="114.59" x2="1307.12" y2="0.16"/><line class="cls-5" x1="553.9" y1="114.59" x2="614.74" y2="0.16"/><line class="cls-5" x1="1430.81" y1="114.59" x2="1491.65" y2="0.16"/><line class="cls-5" x1="738.43" y1="114.59" x2="799.28" y2="0.16"/><line class="cls-5" x1="1615.34" y1="114.59" x2="1676.19" y2="0.16"/><line class="cls-5" x1="46.43" y1="114.59" x2="107.27" y2="0.16"/><line class="cls-5" x1="923.34" y1="114.59" x2="984.18" y2="0.16"/><line class="cls-5" x1="230.97" y1="114.59" x2="291.81" y2="0.16"/><line class="cls-5" x1="1107.88" y1="114.59" x2="1168.72" y2="0.16"/><line class="cls-5" x1="415.5" y1="114.59" x2="476.34" y2="0.16"/><line class="cls-5" x1="1292.41" y1="114.59" x2="1353.25" y2="0.16"/><line class="cls-5" x1="600.03" y1="114.59" x2="660.88" y2="0.16"/><line class="cls-5" x1="1476.94" y1="114.59" x2="1537.79" y2="0.16"/><line class="cls-5" x1="784.57" y1="114.59" x2="845.41" y2="0.16"/><line class="cls-5" x1="1661.48" y1="114.59" x2="1722.32" y2="0.16"/><line class="cls-5" x1="92.57" y1="114.59" x2="153.41" y2="0.16"/><line class="cls-5" x1="969.47" y1="114.59" x2="1030.32" y2="0.16"/><line class="cls-5" x1="277.1" y1="114.59" x2="337.94" y2="0.16"/><line class="cls-5" x1="1154.01" y1="114.59" x2="1214.85" y2="0.16"/><line class="cls-5" x1="461.63" y1="114.59" x2="522.48" y2="0.16"/><line class="cls-5" x1="1338.54" y1="114.59" x2="1399.39" y2="0.16"/><line class="cls-3" x1="646.17" y1="114.59" x2="707.01" y2="0.16"/><line class="cls-3" x1="1523.08" y1="114.59" x2="1583.92" y2="0.16"/><line class="cls-4" x1="830.7" y1="114.59" x2="891.55" y2="0.16"/><line class="cls-4" x1="1707.61" y1="114.59" x2="1768.45" y2="0.16"/><line class="cls-5" x1="138.7" y1="114.59" x2="199.54" y2="0.16"/><line class="cls-5" x1="1015.61" y1="114.59" x2="1076.45" y2="0.16"/><line class="cls-3" x1="323.23" y1="114.59" x2="384.08" y2="0.16"/><line class="cls-3" x1="1200.14" y1="114.59" x2="1260.99" y2="0.16"/><line class="cls-4" x1="507.77" y1="114.59" x2="568.61" y2="0.16"/><line class="cls-4" x1="1384.68" y1="114.59" x2="1445.52" y2="0.16"/><line class="cls-5" x1="692.3" y1="114.59" x2="753.14" y2="0.16"/><line class="cls-5" x1="1569.21" y1="114.59" x2="1630.05" y2="0.16"/></g><line class="cls-6" x1="1724.05" y1="182.92" x2="1786.15" y2="64.8"/><line class="cls-6" x1="1769.95" y1="183.08" x2="1832.05" y2="64.64"/><g class="cls-2"><line class="cls-7" x1="1815.85" y1="182.92" x2="1877.95" y2="64.64"/></g></svg>