<?xml version="1.0" encoding="utf-8"?>
<!-- Generator: Adobe Illustrator 23.0.2, SVG Export Plug-In . SVG Version: 6.00 Build 0)  -->
<svg version="1.1" id="Layer_1" xmlns="http://www.w3.org/2000/svg" xmlns:xlink="http://www.w3.org/1999/xlink" x="0px" y="0px"
	 viewBox="0 0 2052.6 266.84" style="enable-background:new 0 0 2052.6 266.84;" xml:space="preserve">
<style type="text/css">
	.st0{clip-path:url(#SVGID_2_);fill:none;stroke:#2B4FA2;stroke-width:0.5;}
	.st1{clip-path:url(#SVGID_2_);fill:none;stroke:#ED1C24;stroke-width:0.5;}
	.st2{clip-path:url(#SVGID_2_);fill:none;stroke:#000000;stroke-width:0.5;}
</style>
<g>
	<defs>
		<rect id="SVGID_1_" x="39.34" y="66.29" width="1986" height="110.6"/>
	</defs>
	<clipPath id="SVGID_2_">
		<use xlink:href="#SVGID_1_"  style="overflow:visible;"/>
	</clipPath>
	<line class="st0" x1="39.56" y1="176.77" x2="98.34" y2="66.41"/>
	<line class="st0" x1="1032.56" y1="176.77" x2="1091.34" y2="66.41"/>
	<line class="st1" x1="217.43" y1="176.77" x2="276.2" y2="66.41"/>
	<line class="st1" x1="1210.43" y1="176.77" x2="1269.2" y2="66.41"/>
	<line class="st2" x1="395.29" y1="176.77" x2="454.07" y2="66.41"/>
	<line class="st2" x1="1388.29" y1="176.77" x2="1447.07" y2="66.41"/>
	<line class="st2" x1="573.15" y1="176.77" x2="631.93" y2="66.41"/>
	<line class="st2" x1="1566.15" y1="176.77" x2="1624.93" y2="66.41"/>
	<line class="st2" x1="751.01" y1="176.77" x2="809.79" y2="66.41"/>
	<line class="st2" x1="1744.01" y1="176.77" x2="1802.79" y2="66.41"/>
	<line class="st2" x1="84.03" y1="176.77" x2="142.81" y2="66.41"/>
	<line class="st2" x1="1077.03" y1="176.77" x2="1135.81" y2="66.41"/>
	<line class="st2" x1="261.89" y1="176.77" x2="320.67" y2="66.41"/>
	<line class="st2" x1="1254.89" y1="176.77" x2="1313.67" y2="66.41"/>
	<line class="st2" x1="884.41" y1="176.77" x2="943.19" y2="66.41"/>
	<line class="st2" x1="1877.41" y1="176.77" x2="1936.19" y2="66.41"/>
	<line class="st2" x1="439.75" y1="176.77" x2="498.53" y2="66.41"/>
	<line class="st2" x1="1432.75" y1="176.77" x2="1491.53" y2="66.41"/>
	<line class="st2" x1="617.62" y1="176.77" x2="676.39" y2="66.41"/>
	<line class="st2" x1="1610.62" y1="176.77" x2="1669.39" y2="66.41"/>
	<line class="st2" x1="795.48" y1="176.77" x2="854.26" y2="66.41"/>
	<line class="st2" x1="1788.48" y1="176.77" x2="1847.26" y2="66.41"/>
	<line class="st2" x1="128.49" y1="176.77" x2="187.27" y2="66.41"/>
	<line class="st2" x1="1121.49" y1="176.77" x2="1180.27" y2="66.41"/>
	<line class="st2" x1="306.36" y1="176.77" x2="365.13" y2="66.41"/>
	<line class="st2" x1="1299.36" y1="176.77" x2="1358.13" y2="66.41"/>
	<line class="st2" x1="928.88" y1="176.77" x2="987.66" y2="66.41"/>
	<line class="st2" x1="1921.88" y1="176.77" x2="1980.66" y2="66.41"/>
	<line class="st2" x1="484.22" y1="176.77" x2="543" y2="66.41"/>
	<line class="st2" x1="1477.22" y1="176.77" x2="1536" y2="66.41"/>
	<line class="st0" x1="662.08" y1="176.77" x2="720.86" y2="66.41"/>
	<line class="st0" x1="1655.08" y1="176.77" x2="1713.86" y2="66.41"/>
	<line class="st1" x1="839.95" y1="176.77" x2="898.72" y2="66.41"/>
	<line class="st1" x1="1832.95" y1="176.77" x2="1891.72" y2="66.41"/>
	<line class="st2" x1="172.96" y1="176.77" x2="231.74" y2="66.41"/>
	<line class="st2" x1="1165.96" y1="176.77" x2="1224.74" y2="66.41"/>
	<line class="st0" x1="350.82" y1="176.77" x2="409.6" y2="66.41"/>
	<line class="st0" x1="1343.82" y1="176.77" x2="1402.6" y2="66.41"/>
	<line class="st0" x1="973.34" y1="176.77" x2="1032.12" y2="66.41"/>
	<line class="st0" x1="1966.34" y1="176.77" x2="2025.12" y2="66.41"/>
	<line class="st1" x1="528.69" y1="176.77" x2="587.46" y2="66.41"/>
	<line class="st1" x1="1521.69" y1="176.77" x2="1580.46" y2="66.41"/>
	<line class="st2" x1="706.55" y1="176.77" x2="765.33" y2="66.41"/>
	<line class="st2" x1="1699.55" y1="176.77" x2="1758.33" y2="66.41"/>
</g>
</svg>
